<?xml version="1.0" encoding="UTF-8" standalone="no"?>
<svg
   xmlns:dc="http://purl.org/dc/elements/1.1/"
   xmlns:cc="http://creativecommons.org/ns#"
   xmlns:rdf="http://www.w3.org/1999/02/22-rdf-syntax-ns#"
   xmlns:svg="http://www.w3.org/2000/svg"
   xmlns="http://www.w3.org/2000/svg"
   xmlns:sodipodi="http://sodipodi.sourceforge.net/DTD/sodipodi-0.dtd"
   xmlns:inkscape="http://www.inkscape.org/namespaces/inkscape"
   width="16"
   height="16"
   id="svg2"
   version="1.1"
   inkscape:version="0.91 r13725"
   sodipodi:docname="folder-local.svg">
  <metadata
     id="metadata14">
    <rdf:RDF>
      <cc:Work
         rdf:about="">
        <dc:format>image/svg+xml</dc:format>
        <dc:type
           rdf:resource="http://purl.org/dc/dcmitype/StillImage" />
        <dc:title></dc:title>
      </cc:Work>
    </rdf:RDF>
  </metadata>
  <defs
     id="defs12" />
  <sodipodi:namedview
     pagecolor="#ffffff"
     bordercolor="#666666"
     borderopacity="1"
     objecttolerance="10"
     gridtolerance="10"
     guidetolerance="10"
     inkscape:pageopacity="0"
     inkscape:pageshadow="2"
     inkscape:window-width="1920"
     inkscape:window-height="1053"
     id="namedview10"
     showgrid="false"
     inkscape:zoom="14.75"
     inkscape:cx="-8.5084746"
     inkscape:cy="8"
     inkscape:window-x="0"
     inkscape:window-y="27"
     inkscape:window-maximized="1"
     inkscape:current-layer="svg2" />
  <style
     type="text/css"
     id="style4">.icon-canvas-transparent{opacity:0;fill:#F6F6F6;} .icon-vs-out{opacity:0;fill:#F6F6F6;} .icon-vs-fg{opacity:0;fill:#F0EFF1;} .icon-folder{fill:#C5C5C5;}</style>
  <path
     class="icon-canvas-transparent"
     d="M16 16h-16v-16h16v16z"
     id="canvas" />
  <path
     class="icon-vs-out"
     d="M16 2.5v10c0 .827-.673 1.5-1.5 1.5h-11.996c-.827 0-1.5-.673-1.5-1.5v-8c0-.827.673-1.5 1.5-1.5h2.886l1-2h8.11c.827 0 1.5.673 1.5 1.5z"
     id="outline" />
  <path
     class="icon-folder"
     d="M14.5 2h-7.492l-1 2h-3.504c-.277 0-.5.224-.5.5v8c0 .276.223.5.5.5h11.996c.275 0 .5-.224.5-.5v-10c0-.276-.225-.5-.5-.5zm-.496 2h-6.496l.5-1h5.996v1z"
     id="iconBg"
     style="fill:#1ff147;fill-opacity:1" />
  <path
     class="icon-vs-fg"
     d="M14 3v1h-6.5l.5-1h6z"
     id="iconFg" />
</svg>
