<?xml version="1.0" encoding="UTF-8" standalone="no"?>
<!-- Created with Inkscape (http://www.inkscape.org/) -->

<svg
   xmlns:dc="http://purl.org/dc/elements/1.1/"
   xmlns:cc="http://creativecommons.org/ns#"
   xmlns:rdf="http://www.w3.org/1999/02/22-rdf-syntax-ns#"
   xmlns:svg="http://www.w3.org/2000/svg"
   xmlns="http://www.w3.org/2000/svg"
   xmlns:sodipodi="http://sodipodi.sourceforge.net/DTD/sodipodi-0.dtd"
   xmlns:inkscape="http://www.inkscape.org/namespaces/inkscape"
   width="10.052526mm"
   height="5.5381613mm"
   viewBox="0 0 35.619185 19.623406"
   id="svg4177"
   version="1.1"
   inkscape:version="0.91 r13725"
   sodipodi:docname="activity-bar.svg">
  <defs
     id="defs4179" />
  <sodipodi:namedview
     id="base"
     pagecolor="#ffffff"
     bordercolor="#666666"
     borderopacity="1.0"
     inkscape:pageopacity="0.0"
     inkscape:pageshadow="2"
     inkscape:zoom="17.154771"
     inkscape:cx="23.294447"
     inkscape:cy="3.9281861"
     inkscape:document-units="px"
     inkscape:current-layer="g4754"
     showgrid="false"
     inkscape:window-width="1920"
     inkscape:window-height="1031"
     inkscape:window-x="1920"
     inkscape:window-y="27"
     inkscape:window-maximized="1"
     fit-margin-top="0"
     fit-margin-left="0"
     fit-margin-right="0"
     fit-margin-bottom="0" />
  <metadata
     id="metadata4182">
    <rdf:RDF>
      <cc:Work
         rdf:about="">
        <dc:format>image/svg+xml</dc:format>
        <dc:type
           rdf:resource="http://purl.org/dc/dcmitype/StillImage" />
        <dc:title></dc:title>
      </cc:Work>
    </rdf:RDF>
  </metadata>
  <g
     inkscape:label="Layer 1"
     inkscape:groupmode="layer"
     id="layer1"
     transform="translate(-108.7441,-534.0625)">
    <g
       id="g4754">
      <path
         style="fill:#848484;fill-opacity:1;stroke:none;stroke-width:1.70000005;stroke-linejoin:round;stroke-miterlimit:4;stroke-dasharray:none;stroke-opacity:1"
         d="m 120.16797,534.0625 a 0.85008502,0.85008502 0 0 0 -0.60547,0.26367 c -0.22359,0.10662 -0.51353,0.14733 -0.67773,0.28516 -0.26809,0.22503 -0.48261,0.465 -0.68946,0.68555 -0.31289,0.18686 -1.1154,0.48347 -2.06054,0.70117 l -0.002,0 c -0.79177,0.11649 -1.56143,0.26047 -2.31445,0.38086 -0.003,2.7e-4 -0.005,-2.8e-4 -0.008,0 -0.32125,0.0305 -0.60464,0.0422 -0.86914,0.0449 -0.34152,-0.0789 -0.82296,-0.3454 -1.41407,-0.61328 -0.61157,-0.27715 -1.50401,-0.53327 -2.34179,-0.0742 a 0.85008502,0.85008502 0 0 0 -0.44141,0.74023 c -0.005,0.93045 0.40973,1.66128 0.76953,2.25 0.3195,0.52281 0.55653,0.93981 0.68555,1.33008 0.022,0.0702 0.0499,0.15205 0.0625,0.2207 0.0192,0.45741 -0.0356,0.99132 -0.0449,1.62696 -8.6e-4,0.0589 0.0482,0.13271 0.0488,0.19336 -10e-4,0.004 -0.005,0.0102 -0.006,0.0137 -0.0114,0.0595 -0.0147,0.1045 -0.0156,0.14258 -0.003,0.10451 0.0376,0.0865 0.0371,0.13476 -0.005,0.009 -0.0185,0.0404 -0.002,-0.125 0.002,-0.016 0.008,-0.0406 0.0117,-0.0625 6.9e-4,0.0268 0.0204,0.0569 0.0215,0.084 -0.005,0.0152 -0.0117,0.0289 -0.0137,0.0391 -0.007,0.0367 -0.01,0.0603 -0.0117,0.0879 2.3e-4,0.017 0.0141,0.0424 0.0156,0.0547 l -0.0176,-0.0352 c -5.8e-4,0.0104 -0.004,0.0258 -0.004,0.0352 -0.003,0.10426 0.0376,0.0866 0.0371,0.13476 -0.003,0.006 -0.003,-0.0326 -0.002,-0.082 0.0147,0.0462 -0.007,0.13614 0.0723,0.25977 l -0.0488,-0.0996 c 0.009,0.0738 -0.0175,0.15631 0.0898,0.33008 0.0158,0.0255 0.0521,0.069 0.0879,0.11132 0.0832,0.36968 0.0345,0.72173 0.26758,1.08399 l 0,0.002 c 0.63245,1.15547 1.50368,2.83529 3.2832,3.30664 0.0473,0.0238 0.0608,0.031 0.10742,0.13281 0.0489,0.10672 0.0997,0.3095 0.13867,0.56836 a 0.85008502,0.85008502 0 0 0 0,0.004 c 6.4e-4,0.004 -0.002,0.016 -0.002,0.0195 0.002,0.0106 0.006,0.0155 0.008,0.0254 5.3e-4,0.003 9.6e-4,0.005 0.002,0.008 0.0122,0.0853 0.0234,0.14337 0.0273,0.17383 a 0.85008502,0.85008502 0 0 0 0.002,0.0156 0.85008502,0.85008502 0 0 0 0.004,0.0234 l 0,0.002 c 6.6e-4,0.003 -0.002,0.0143 -0.002,0.0176 0.002,0.0102 0.01,0.0176 0.0117,0.0273 8.8e-4,0.005 9.6e-4,0.009 0.002,0.0137 0.0531,0.43175 0.17704,0.96404 0.41992,1.48828 0.0616,0.22947 0.14581,0.49815 0.16601,0.74024 0.001,0.34251 0.0423,0.62426 0.17579,0.91406 a 0.85008502,0.85008502 0 0 0 0.16211,0.30469 c 0.0122,0.0147 0.0266,0.017 0.0391,0.0312 0.0998,0.13931 0.13699,0.3345 0.26562,0.4375 0.64761,0.51858 1.44986,0.67806 2.22266,0.64453 0.42656,0.0328 0.91746,0.0587 1.55664,0.0684 1.50458,0.0229 5.87393,0.13436 9.68359,0.24805 3.81268,0.11374 7.75825,0.22815 8.77344,0.25585 1.33772,0.0364 2.41011,-0.0451 3.32617,-0.31835 0.91549,-0.27306 1.6697,-0.76636 2.23047,-1.44336 0.37897,-0.45753 0.6959,-0.9265 0.83399,-1.54297 0.13808,-0.61648 0.14062,-1.30387 0.14062,-2.48243 0,-2.44853 -0.31647,-4.3279 -1.07422,-5.89062 -0.021,-0.0465 -0.0421,-0.0901 -0.0566,-0.12109 a 0.85008502,0.85008502 0 0 0 -0.0117,-0.0254 c -0.0635,-0.12463 -0.12213,-0.22317 -0.16992,-0.30664 -0.94566,-1.76801 -2.53594,-3.02212 -4.22656,-3.90626 l -0.01,-0.006 c -0.0924,-0.0508 -0.16687,-0.0857 -0.21484,-0.11133 a 0.85008502,0.85008502 0 0 0 -0.0195,-0.0117 c -0.1316,-0.0658 -0.2693,-0.13395 -0.41406,-0.20117 -0.99849,-0.49435 -2.0319,-0.88007 -3.04883,-1.1211 a 0.85008502,0.85008502 0 0 0 -0.004,0 c -0.014,-0.003 -0.0686,-0.0198 -0.15625,-0.0391 l -0.008,-0.002 c -0.35814,-0.0793 -0.69635,-0.13021 -1.01953,-0.16797 l -0.004,0 c -0.0643,-0.008 -0.15458,-0.0233 -0.27734,-0.0352 a 0.85008502,0.85008502 0 0 0 -0.0117,0 c -0.24376,-0.0203 -0.51503,-0.0435 -0.80664,-0.0371 -1.77777,-0.0401 -3.57785,0.34546 -5.16797,1.25977 -1.14649,0.53343 -1.90931,1.386 -2.5918,2.01367 -0.42796,-0.0826 -0.88015,-0.1749 -1.20312,-0.21094 -0.48182,-0.0538 -0.75689,-0.13165 -0.95313,-0.32031 a 0.85008502,0.85008502 0 0 0 -0.084,-0.0703 c -0.23195,-0.17164 -0.39133,-0.35109 -0.52149,-0.55274 a 0.85008502,0.85008502 0 0 0 -0.006,-0.008 c -0.38636,-0.60456 -0.46287,-1.50039 -0.57226,-2.59375 a 0.85008502,0.85008502 0 0 0 -0.0918,-0.31055 c -0.20705,-0.39482 -0.55215,-0.67937 -0.9375,-0.85937 a 0.85008502,0.85008502 0 0 0 -0.51562,-0.19336 c -0.008,-1.5e-4 -0.01,0.008 -0.0176,0.008 l 0,-0.008 z m -9.73828,6.80859 c -0.002,0.007 0.007,0.0145 0.006,0.0215 a 0.85008502,0.85008502 0 0 0 -0.002,0.0137 l -0.004,-0.006 c 3.8e-4,0.002 9.2e-4,-0.0317 0,-0.0293 z m 22.56836,1.40625 2.99414,0 c 0.45006,0 0.85606,0.0553 1.21679,0.16602 0.36073,0.11078 0.66717,0.26528 0.91797,0.46289 0.2508,0.1976 0.44219,0.43262 0.57617,0.70508 0.13399,0.26946 0.20118,0.5644 0.20118,0.88476 0,0.31737 -0.0672,0.6058 -0.20118,0.86329 -0.13397,0.25747 -0.32537,0.47843 -0.57617,0.66406 -0.2508,0.18263 -0.55724,0.32398 -0.91797,0.42578 -0.36073,0.0988 -0.76673,0.14844 -1.21679,0.14844 l -1.18555,0 0,2.21875 -1.80859,0 0,-6.53907 z m -13.40625,0.0586 5.01953,0 0,1.21679 -3.21094,0 0,1.50586 2.91602,0 0,1.21094 -2.91602,0 0,2.60547 -1.80859,0 0,-6.53906 z m -9.25586,0.041 c 0.004,0.076 0.0489,0.15675 0.0566,0.23438 0.002,0.0119 -0.002,0.0252 0,0.0371 l -0.0742,-0.15235 c 10e-4,-0.0188 -0.003,0.006 0,-0.0195 0.002,-0.0255 0.008,-0.057 0.0176,-0.0996 z m 15.15625,0.0176 6.27148,0 0,1.2168 -2.25195,0 0,5.32226 -1.8086,0 0,-5.32226 -2.21093,0 0,-1.2168 z m -15.08789,0.41406 c 0.0103,0.0167 0.0375,0.0475 0.0547,0.0703 0.005,0.0296 0.016,0.0581 0.0215,0.0879 l -0.0762,-0.15821 z m 24.40234,0.68555 0,1.88672 1.18555,0 c 0.18896,0 0.35039,-0.0206 0.48437,-0.0625 0.13742,-0.0449 0.25005,-0.10577 0.33594,-0.18359 0.0893,-0.0779 0.15409,-0.17151 0.19531,-0.2793 0.0412,-0.10779 0.0625,-0.22386 0.0625,-0.34961 0,-0.13473 -0.0213,-0.26305 -0.0625,-0.38281 -0.0412,-0.12276 -0.10596,-0.22945 -0.19531,-0.32227 -0.0859,-0.0928 -0.19852,-0.1668 -0.33594,-0.2207 -0.13398,-0.0569 -0.29541,-0.0859 -0.48437,-0.0859 l -1.18555,0 z"
         id="path4195-1-0"
         inkscape:connector-curvature="0" />
    </g>
  </g>
</svg>
