<?xml version="1.0" encoding="UTF-8" standalone="no"?>
<!-- Generator: Adobe Illustrator 19.0.0, SVG Export Plug-In . SVG Version: 6.00 Build 0)  -->

<svg
   xmlns:dc="http://purl.org/dc/elements/1.1/"
   xmlns:cc="http://creativecommons.org/ns#"
   xmlns:rdf="http://www.w3.org/1999/02/22-rdf-syntax-ns#"
   xmlns:svg="http://www.w3.org/2000/svg"
   xmlns="http://www.w3.org/2000/svg"
   xmlns:sodipodi="http://sodipodi.sourceforge.net/DTD/sodipodi-0.dtd"
   xmlns:inkscape="http://www.inkscape.org/namespaces/inkscape"
   version="1.1"
   id="Capa_1"
   x="0px"
   y="0px"
   viewBox="0 0 438.35741 395.40389"
   xml:space="preserve"
   inkscape:version="0.91 r13725"
   sodipodi:docname="switch.svg"
   width="438.35742"
   height="395.4039"><metadata
     id="metadata49"><rdf:RDF><cc:Work
         rdf:about=""><dc:format>image/svg+xml</dc:format><dc:type
           rdf:resource="http://purl.org/dc/dcmitype/StillImage" /><dc:title></dc:title></cc:Work></rdf:RDF></metadata><defs
     id="defs47" /><sodipodi:namedview
     pagecolor="#ffffff"
     bordercolor="#666666"
     borderopacity="1"
     objecttolerance="10"
     gridtolerance="10"
     guidetolerance="10"
     inkscape:pageopacity="0"
     inkscape:pageshadow="2"
     inkscape:window-width="1920"
     inkscape:window-height="1031"
     id="namedview45"
     showgrid="false"
     fit-margin-top="0"
     fit-margin-left="0"
     fit-margin-right="0"
     fit-margin-bottom="0"
     inkscape:zoom="0.5611592"
     inkscape:cx="-15.166331"
     inkscape:cy="177.20865"
     inkscape:window-x="1920"
     inkscape:window-y="27"
     inkscape:window-maximized="1"
     inkscape:current-layer="Capa_1" /><g
     id="g3"
     style="stroke:#000000;stroke-width:16;stroke-miterlimit:4;stroke-dasharray:none;stroke-opacity:1"
     transform="translate(9.7820255,-33.070342)"><g
       id="g5"
       style="stroke:#000000;stroke-width:16;stroke-miterlimit:4;stroke-dasharray:none;stroke-opacity:1"><path
         d="m 419.6,172.679 c -0.8,-0.8 -1.6,-2 -2.4,-2.8 l -48.8,-60.8 c 0,-0.4 -0.4,-0.4 -0.4,-0.8 l -48.4,-60.4 c 0,0 0,0 0,-0.4 -0.8,-0.8 -1.6,-2 -2.8,-2.8 -1.2,-0.8 -2.4,-1.6 -3.6,-2 -4,-1.6 -8.4,-2 -12.4,-1.2 -4,0.8 -8,2.8 -10.4,6 l -48,60.4 c 0,0 0,0 -0.4,0.4 0,0 0,0 -0.4,0.4 l -48.4,60.4 c -1.2,1.2 -2,2.4 -2.4,3.6 -0.4,1.6 -0.8,2.8 -0.8,4.4 0,4 2,7.6 5.6,10 3.2,2 7.2,3.6 11.6,3.6 l 62.4,0 0,70 c 0,10 4,18.8 10.4,25.2 6.4,6.4 15.2,10.4 25.2,10.4 10,0 18.8,-4 25.2,-10.4 6.4,-6.4 10.4,-15.2 10.4,-25.2 l 0,-70 62.4,0 c 0.4,0 0.4,0 0.8,0 1.2,0 2.4,0 3.6,-0.4 1.2,-0.4 2.8,-0.8 4,-1.2 1.6,-0.8 2.8,-1.6 4,-2.4 2,-1.6 3.6,-4 4.4,-6.4 0.8,-2.4 0.8,-5.2 -0.4,-7.6 z m -8.4,4.8 c -0.4,1.2 -0.8,2 -1.6,2.4 -0.4,0.4 -1.2,0.8 -2,1.2 -0.8,0.4 -1.6,0.4 -2.4,0.8 -0.8,0 -1.6,0.4 -2.4,0.4 l -66.4,0 c -2.4,0 -4.4,2 -4.4,4.4 l 0,74.4 c 0,7.2 -3.2,14 -8,18.8 -4.8,4.8 -11.6,8 -18.8,8 -7.2,0 -14,-3.2 -18.8,-8 -4.8,-4.8 -8,-11.6 -8,-18.8 l 0,-74.8 c 0,-2.4 -2,-4.4 -4.4,-4.4 l -66.8,0 c -2.8,0 -4.8,-0.8 -6.4,-2 -1.2,-0.8 -2,-2 -2,-3.2 0,-0.4 0,-0.8 0,-1.2 0,-0.4 0.4,-0.8 0.8,-1.2 l 0.4,-0.4 48.4,-60.4 0.4,-0.4 48.4,-60.4 c 1.2,-1.2 2.8,-2.4 5.2,-2.8 2.4,-0.4 4.8,-0.4 7.2,0.8 0.8,0.4 1.2,0.8 1.6,0.8 0.4,0.4 0.8,0.8 1.2,1.2 0,0 0,0 0.4,0.4 l 48.8,60.8 c 0,0 0,0.4 0.4,0.4 l 48.8,60.8 c 0.4,0.4 0.4,0.8 0.4,0.8 0.4,0.4 0.4,1.2 0,1.6 z"
         id="path7"
         style="stroke:#000000;stroke-width:16;stroke-miterlimit:4;stroke-dasharray:none;stroke-opacity:1"
         inkscape:connector-curvature="0" /></g></g><g
     id="g9"
     style="stroke:#000000;stroke-width:16;stroke-miterlimit:4;stroke-dasharray:none;stroke-opacity:1"
     transform="translate(8,7.9162442)"><g
       id="g11"
       style="stroke:#000000;stroke-width:16;stroke-miterlimit:4;stroke-dasharray:none;stroke-opacity:1"><path
         d="m 229.6,239.879 c -0.8,-2.4 -2.4,-4.4 -4.4,-6.4 -1.2,-0.8 -2.4,-1.6 -4,-2.4 -1.2,-0.4 -2.4,-0.8 -4,-1.2 -1.2,-0.4 -2.4,-0.4 -3.6,-0.4 -0.4,0 -0.4,0 -0.8,0 l -62,0 0,-69.6 c 0,-10 -4,-18.8 -10.4,-25.2 -6.4,-6.4 -15.2,-10.4 -25.2,-10.4 -10,0 -18.8,4 -25.2,10.4 -6.4,6.4 -10.4,15.2 -10.4,25.2 l 0,70 -62.4,0 c -4.4,0 -8.4,1.2 -11.6,3.6 -3.6,2.4 -5.6,6 -5.6,10 0,1.6 0.4,3.2 0.8,4.4 0.4,1.2 1.6,2.8 2.4,3.6 l 48.4,60.4 c 0.4,0.4 0.4,0.8 0.4,0.8 l 48.4,60.4 c 2.4,3.2 6,5.2 10.4,6 4,0.8 8.4,0.4 12.4,-1.2 1.2,-0.4 2.4,-1.2 3.6,-2 1.2,-0.8 2,-1.6 2.8,-2.8 0,0 0,0 0,-0.4 l 48.4,-60.4 0.4,-0.4 48.8,-61.2 c 0.8,-0.8 1.2,-2 2,-3.2 1.2,-2.4 1.2,-5.2 0.4,-7.6 z m -8.8,4.8 c 0,0.4 -0.4,0.8 -0.4,0.8 l -48.4,60.8 -0.4,0.4 -48.8,60.8 c 0,0 0,0 -0.4,0.4 -0.4,0.4 -0.8,0.8 -1.2,1.2 -0.4,0.4 -1.2,0.8 -1.6,0.8 -2.4,0.8 -4.8,1.2 -7.2,0.8 -2,-0.4 -4,-1.2 -5.2,-2.8 l -48,-60.8 -0.4,-0.4 -48.8,-60.4 c 0,-0.4 0,-0.4 -0.4,-0.8 -0.4,-0.4 -0.8,-0.8 -0.8,-1.2 0,-0.4 -0.4,-0.8 -0.4,-1.2 0,-1.2 0.8,-2 2,-3.2 1.6,-1.2 4,-2 6.4,-2 l 66.8,0 c 2.4,0 4.4,-2 4.4,-4.4 l 0,-73.6 c 0,-7.2 3.2,-14 8,-18.8 4.8,-4.8 11.6,-8 18.8,-8 7.2,0 14,3.2 18.8,8 4.8,4.8 8,11.6 8,18.8 l 0,74.4 c 0,2.4 2,4.4 4.4,4.4 l 66.4,0 c 0.8,0 1.6,0 2.4,0.4 0.8,0 1.6,0.4 2.4,0.8 0.8,0.4 1.6,0.8 2,1.2 0.8,0.8 1.2,1.2 1.6,2 0,0.4 0,1.2 0,1.6 z"
         id="path13"
         style="stroke:#000000;stroke-width:16;stroke-miterlimit:4;stroke-dasharray:none;stroke-opacity:1"
         inkscape:connector-curvature="0" /></g></g><g
     id="g15"
     style="stroke:#000000;stroke-width:16;stroke-miterlimit:4;stroke-dasharray:none;stroke-opacity:1"
     transform="translate(8,7.9162442)" /><g
     id="g17"
     style="stroke:#000000;stroke-width:16;stroke-miterlimit:4;stroke-dasharray:none;stroke-opacity:1"
     transform="translate(8,7.9162442)" /><g
     id="g19"
     style="stroke:#000000;stroke-width:16;stroke-miterlimit:4;stroke-dasharray:none;stroke-opacity:1"
     transform="translate(8,7.9162442)" /><g
     id="g21"
     style="stroke:#000000;stroke-width:16;stroke-miterlimit:4;stroke-dasharray:none;stroke-opacity:1"
     transform="translate(8,7.9162442)" /><g
     id="g23"
     style="stroke:#000000;stroke-width:16;stroke-miterlimit:4;stroke-dasharray:none;stroke-opacity:1"
     transform="translate(8,7.9162442)" /><g
     id="g25"
     style="stroke:#000000;stroke-width:16;stroke-miterlimit:4;stroke-dasharray:none;stroke-opacity:1"
     transform="translate(8,7.9162442)" /><g
     id="g27"
     style="stroke:#000000;stroke-width:16;stroke-miterlimit:4;stroke-dasharray:none;stroke-opacity:1"
     transform="translate(8,7.9162442)" /><g
     id="g29"
     style="stroke:#000000;stroke-width:16;stroke-miterlimit:4;stroke-dasharray:none;stroke-opacity:1"
     transform="translate(8,7.9162442)" /><g
     id="g31"
     style="stroke:#000000;stroke-width:16;stroke-miterlimit:4;stroke-dasharray:none;stroke-opacity:1"
     transform="translate(8,7.9162442)" /><g
     id="g33"
     style="stroke:#000000;stroke-width:16;stroke-miterlimit:4;stroke-dasharray:none;stroke-opacity:1"
     transform="translate(8,7.9162442)" /><g
     id="g35"
     style="stroke:#000000;stroke-width:16;stroke-miterlimit:4;stroke-dasharray:none;stroke-opacity:1"
     transform="translate(8,7.9162442)" /><g
     id="g37"
     style="stroke:#000000;stroke-width:16;stroke-miterlimit:4;stroke-dasharray:none;stroke-opacity:1"
     transform="translate(8,7.9162442)" /><g
     id="g39"
     style="stroke:#000000;stroke-width:16;stroke-miterlimit:4;stroke-dasharray:none;stroke-opacity:1"
     transform="translate(8,7.9162442)" /><g
     id="g41"
     style="stroke:#000000;stroke-width:16;stroke-miterlimit:4;stroke-dasharray:none;stroke-opacity:1"
     transform="translate(8,7.9162442)" /><g
     id="g43"
     style="stroke:#000000;stroke-width:16;stroke-miterlimit:4;stroke-dasharray:none;stroke-opacity:1"
     transform="translate(8,7.9162442)" /></svg>